<svg width="800" height="450" viewBox="0 0 800 450" xmlns="http://www.w3.org/2000/svg">
  <!-- Background -->
  <rect width="800" height="450" fill="#ffffff" rx="8" ry="8"/>
  
  <!-- Header -->
  <rect width="800" height="60" fill="#3b82f6" rx="8" ry="8"/>
  <text x="20" y="38" font-family="Arial" font-size="20" font-weight="bold" fill="#ffffff">Budget Tracker</text>
  
  <!-- Navigation items -->
  <text x="180" y="38" font-family="Arial" font-size="14" fill="#ffffff" fill-opacity="0.8">Dashboard</text>
  <text x="280" y="38" font-family="Arial" font-size="14" fill="#ffffff" fill-opacity="0.8">Budgets</text>
  
  <!-- User icon -->
  <circle cx="760" cy="30" r="18" fill="#ffffff"/>
  <text x="755" y="35" font-family="Arial" font-size="16" font-weight="bold" fill="#3b82f6">U</text>
  
  <!-- Dashboard title -->
  <text x="20" y="90" font-family="Arial" font-size="24" font-weight="bold" fill="#1e3a8a">Your Budget Dashboard</text>
  
  <!-- Budget statistics panel -->
  <rect x="20" y="110" width="760" height="80" fill="#ffffff" stroke="#e5e7eb" stroke-width="1" rx="4" ry="4"/>
  
  <!-- Stats -->
  <text x="40" y="145" font-family="Arial" font-size="18" font-weight="bold" fill="#3b82f6">45,000 kr</text>
  <text x="40" y="170" font-family="Arial" font-size="14" fill="#6b7280">Total Budget</text>
  
  <text x="230" y="145" font-family="Arial" font-size="18" font-weight="bold" fill="#ef4444">21,345 kr</text>
  <text x="230" y="170" font-family="Arial" font-size="14" fill="#6b7280">Spent</text>
  
  <text x="420" y="145" font-family="Arial" font-size="18" font-weight="bold" fill="#10b981">23,655 kr</text>
  <text x="420" y="170" font-family="Arial" font-size="14" fill="#6b7280">Remaining</text>
  
  <text x="610" y="145" font-family="Arial" font-size="18" font-weight="bold" fill="#8b5cf6">8</text>
  <text x="610" y="170" font-family="Arial" font-size="14" fill="#6b7280">Categories</text>
  
  <!-- Charts section -->
  <!-- Pie chart panel -->
  <rect x="20" y="210" width="370" height="220" fill="#ffffff" stroke="#e5e7eb" stroke-width="1" rx="4" ry="4"/>
  <text x="35" y="235" font-family="Arial" font-size="16" font-weight="bold" fill="#1f2937">Expense Categories</text>
  
  <!-- Pie chart -->
  <circle cx="120" cy="320" r="80" fill="none" stroke="#e5e7eb" stroke-width="1"/>
  
  <!-- Pie slices -->
  <path d="M 120 320 L 120 240 A 80 80 0 0 1 189.28 289.28 Z" fill="#3b82f6"/>
  <path d="M 120 320 L 189.28 289.28 A 80 80 0 0 1 169.28 389.28 Z" fill="#ef4444"/>
  <path d="M 120 320 L 169.28 389.28 A 80 80 0 0 1 70.72 389.28 Z" fill="#10b981"/>
  <path d="M 120 320 L 70.72 389.28 A 80 80 0 0 1 50.72 289.28 Z" fill="#f59e0b"/>
  <path d="M 120 320 L 50.72 289.28 A 80 80 0 0 1 89.28 245.86 Z" fill="#8b5cf6"/>
  <path d="M 120 320 L 89.28 245.86 A 80 80 0 0 1 120 240 Z" fill="#ec4899"/>
  
  <!-- Chart legend -->
  <rect x="220" y="260" width="15" height="15" fill="#3b82f6"/>
  <text x="245" y="272" font-family="Arial" font-size="14" fill="#4b5563">Housing</text>
  
  <rect x="220" y="285" width="15" height="15" fill="#ef4444"/>
  <text x="245" y="297" font-family="Arial" font-size="14" fill="#4b5563">Food</text>
  
  <rect x="220" y="310" width="15" height="15" fill="#10b981"/>
  <text x="245" y="322" font-family="Arial" font-size="14" fill="#4b5563">Transport</text>
  
  <rect x="220" y="335" width="15" height="15" fill="#f59e0b"/>
  <text x="245" y="347" font-family="Arial" font-size="14" fill="#4b5563">Entertainment</text>
  
  <rect x="220" y="360" width="15" height="15" fill="#8b5cf6"/>
  <text x="245" y="372" font-family="Arial" font-size="14" fill="#4b5563">Shopping</text>
  
  <rect x="220" y="385" width="15" height="15" fill="#ec4899"/>
  <text x="245" y="397" font-family="Arial" font-size="14" fill="#4b5563">Other</text>
  
  <!-- Expense list panel -->
  <rect x="410" y="210" width="370" height="220" fill="#ffffff" stroke="#e5e7eb" stroke-width="1" rx="4" ry="4"/>
  <text x="425" y="235" font-family="Arial" font-size="16" font-weight="bold" fill="#1f2937">Recent Expenses</text>
  
  <!-- Table header -->
  <rect x="425" y="250" width="340" height="25" fill="#f3f4f6"/>
  <text x="435" y="267" font-family="Arial" font-size="13" fill="#6b7280">Date</text>
  <text x="520" y="267" font-family="Arial" font-size="13" fill="#6b7280">Category</text>
  <text x="680" y="267" font-family="Arial" font-size="13" fill="#6b7280">Amount</text>
  
  <!-- Table rows -->
  <rect x="425" y="303" width="340" height="25" fill="#f9fafb"/>
  <rect x="425" y="353" width="340" height="25" fill="#f9fafb"/>
  
  <text x="435" y="295" font-family="Arial" font-size="13" fill="#4b5563">2025-03-21</text>
  <text x="520" y="295" font-family="Arial" font-size="13" fill="#4b5563">Housing</text>
  <text x="680" y="295" font-family="Arial" font-size="13" fill="#ef4444">8,500 kr</text>
  
  <text x="435" y="320" font-family="Arial" font-size="13" fill="#4b5563">2025-03-19</text>
  <text x="520" y="320" font-family="Arial" font-size="13" fill="#4b5563">Food</text>
  <text x="680" y="320" font-family="Arial" font-size="13" fill="#ef4444">1,200 kr</text>
  
  <text x="435" y="345" font-family="Arial" font-size="13" fill="#4b5563">2025-03-15</text>
  <text x="520" y="345" font-family="Arial" font-size="13" fill="#4b5563">Transport</text>
  <text x="680" y="345" font-family="Arial" font-size="13" fill="#ef4444">650 kr</text>
  
  <text x="435" y="370" font-family="Arial" font-size="13" fill="#4b5563">2025-03-12</text>
  <text x="520" y="370" font-family="Arial" font-size="13" fill="#4b5563">Entertainment</text>
  <text x="680" y="370" font-family="Arial" font-size="13" fill="#ef4444">1,800 kr</text>
  
  <text x="435" y="395" font-family="Arial" font-size="13" fill="#4b5563">2025-03-08</text>
  <text x="520" y="395" font-family="Arial" font-size="13" fill="#4b5563">Shopping</text>
  <text x="680" y="395" font-family="Arial" font-size="13" fill="#ef4444">2,350 kr</text>
</svg>
